<svg xmlns="http://www.w3.org/2000/svg" viewBox="0 0 1200 760">
  <rect width="1200" height="760" fill="#efe0bd"/>
  <rect x="220" y="70" width="760" height="625" rx="10" fill="#d6bc7a" stroke="#9b6440" stroke-width="18"/>
  <path d="M600 105 V665" stroke="#8d5537" stroke-width="20" opacity=".55"/>
  <rect x="470" y="585" width="260" height="78" rx="8" fill="#b64d3e"/>
  <rect x="430" y="410" width="340" height="105" rx="8" fill="#c99446"/>
  <rect x="445" y="245" width="310" height="96" rx="8" fill="#b64d3e"/>
  <rect x="730" y="205" width="160" height="112" rx="8" fill="#a94a3c"/>
  <rect x="205" y="48" width="150" height="105" rx="8" fill="#b64d3e"/>
  <path d="M295 180 H905 M295 365 H905 M295 545 H905" stroke="#b68155" stroke-width="16" opacity=".5"/>
  <path d="M220 45 H980" stroke="#7a4c34" stroke-width="10" opacity=".55"/>
  <path d="M190 35 H1010 V710 H190 Z" fill="none" stroke="#8ab9cf" stroke-width="18" opacity=".7"/>
  <text x="245" y="38" font-size="40" font-family="Arial, sans-serif" fill="#4b3427" font-weight="700">故宫博物院</text>
  <text x="500" y="635" font-size="28" font-family="Arial, sans-serif" fill="#fff" font-weight="700">午门</text>
  <text x="500" y="470" font-size="28" font-family="Arial, sans-serif" fill="#fff" font-weight="700">太和殿</text>
  <text x="493" y="300" font-size="28" font-family="Arial, sans-serif" fill="#fff" font-weight="700">乾清宫</text>
  <text x="752" y="266" font-size="26" font-family="Arial, sans-serif" fill="#fff" font-weight="700">珍宝馆</text>
  <text x="226" y="112" font-size="26" font-family="Arial, sans-serif" fill="#fff" font-weight="700">角楼</text>
</svg>
